HIERARCHY
ROOT Hips
{
 OFFSET 0.000000 0.000000 0.000000
 CHANNELS 6 Xposition Yposition Zposition Yrotation Xrotation Zrotation
 JOINT Chest
 {
  OFFSET 0.000000 11.395451 -0.039534
  CHANNELS 3 Yrotation Xrotation Zrotation
  JOINT Chest2
  {
   OFFSET 0.000000 9.398669 0.071813
   CHANNELS 3 Yrotation Xrotation Zrotation
   JOINT Chest3
   {
    OFFSET 0.000000 8.489801 0.000000
    CHANNELS 3 Yrotation Xrotation Zrotation
    JOINT Chest4
    {
     OFFSET 0.000000 8.489801 0.000000
     CHANNELS 3 Yrotation Xrotation Zrotation
     JOINT Neck
     {
      OFFSET 0.000000 12.404889 0.000000
      CHANNELS 3 Yrotation Xrotation Zrotation
      JOINT Head
      {
       OFFSET 0.000000 8.903270 0.092239
       CHANNELS 3 Yrotation Xrotation Zrotation
       End Site
       {
        OFFSET 0.000000 17.592497 0.007158
       }
      }
     }
     JOINT RightCollar
     {
      OFFSET -3.196775 6.966722 0.000000
      CHANNELS 3 Yrotation Xrotation Zrotation
      JOINT RightShoulder
      {
       OFFSET -15.955896 0.000000 0.000000
       CHANNELS 3 Yrotation Xrotation Zrotation
       JOINT RightElbow
       {
        OFFSET -24.792472 0.000000 0.000000
        CHANNELS 3 Yrotation Xrotation Zrotation
        JOINT RightWrist
        {
         OFFSET -20.900115 0.000000 0.025002
         CHANNELS 3 Yrotation Xrotation Zrotation
         End Site
         {
          OFFSET -16.056692 0.000000 0.000000
         }
        }
       }
      }
     }
     JOINT LeftCollar
     {
      OFFSET 3.196775 6.966722 0.000000
      CHANNELS 3 Yrotation Xrotation Zrotation
      JOINT LeftShoulder
      {
       OFFSET 15.955896 0.000000 0.000000
       CHANNELS 3 Yrotation Xrotation Zrotation
       JOINT LeftElbow
       {
        OFFSET 24.792472 0.000000 0.000000
        CHANNELS 3 Yrotation Xrotation Zrotation
        JOINT LeftWrist
        {
         OFFSET 20.900115 0.000000 0.025002
         CHANNELS 3 Yrotation Xrotation Zrotation
         End Site
         {
          OFFSET 16.056692 0.000000 0.000000
         }
        }
       }
      }
     }
    }
   }
  }
 }
 JOINT RightHip
 {
  OFFSET -9.568995 0.193718 0.019767
  CHANNELS 3 Yrotation Xrotation Zrotation
  JOINT RightKnee
  {
   OFFSET 0.000000 -56.649296 0.015402
   CHANNELS 3 Yrotation Xrotation Zrotation
   JOINT RightAnkle
   {
    OFFSET 0.000000 -41.365147 0.021264
    CHANNELS 3 Yrotation Xrotation Zrotation
    JOINT RightToe
    {
     OFFSET 0.000000 -7.465940 17.672538
     CHANNELS 3 Yrotation Xrotation Zrotation
     End Site
     {
      OFFSET 0.000000 -1.736315 7.837145
     }
    }
   }
  }
 }
 JOINT LeftHip
 {
  OFFSET 9.568995 0.193718 0.019767
  CHANNELS 3 Yrotation Xrotation Zrotation
  JOINT LeftKnee
  {
   OFFSET 0.000000 -56.649296 0.015402
   CHANNELS 3 Yrotation Xrotation Zrotation
   JOINT LeftAnkle
   {
    OFFSET 0.000000 -41.365147 0.021264
    CHANNELS 3 Yrotation Xrotation Zrotation
    JOINT LeftToe
    {
     OFFSET 0.000000 -7.465940 17.672538
     CHANNELS 3 Yrotation Xrotation Zrotation
     End Site
     {
      OFFSET 0.000000 -1.736315 7.837145
     }
    }
   }
  }
 }
}
MOTION
Frames: 15
Frame Time: 0.016667
-103.566981 102.853812 397.305169 23.762088 -4.809548 2.799952 -1.039800 6.426378 -0.435402 -0.455344 2.857143 -0.178777 -0.455343 2.857146 -0.178776 -0.340600 2.142995 -0.131924 -0.048167 12.327509 -0.072366 -0.061298 -13.291968 -0.117710 1.383915 0.616673 5.668007 9.968199 -15.096948 46.316271 38.870405 -38.463592 27.452464 -9.639445 -17.866147 10.404243 3.850652 2.839812 -2.792160 -8.062945 -22.556826 -54.065917 -26.889758 -52.319336 -48.995611 18.415923 -17.832580 7.218031 -8.315546 -22.596611 -5.087073 -4.902797 -0.297712 1.202131 6.636987 -7.163876 7.876615 0.000000 -0.000000 -0.000000 -0.516170 3.861342 -7.355032 3.242879 25.668865 -0.134733 8.589712 -24.099375 3.694479 0.006727 -0.801696 -2.798691
-103.091042 102.556222 398.891331 23.983359 -4.784863 3.097091 -1.151277 6.430163 -0.534953 -0.503420 2.859179 -0.221391 -0.503418 2.859184 -0.221390 -0.376448 2.144575 -0.163651 -0.214530 12.185773 -0.087050 -0.372764 -13.555123 -0.074994 0.898503 0.348234 5.551946 10.308985 -14.910762 46.647650 39.070839 -38.480265 27.186181 -9.715710 -17.720003 10.461751 3.923244 2.799103 -2.835918 -8.023878 -22.595071 -54.082310 -26.700821 -52.405859 -49.229233 18.308199 -17.800396 7.255003 -7.993319 -22.898370 -5.315369 -5.585892 -1.110560 1.253295 6.402856 -7.728761 8.146960 0.000000 0.000000 0.000000 -1.000766 4.550926 -7.562372 4.167970 26.115395 0.100915 8.111271 -24.820224 3.510891 0.027312 -1.430728 -2.883090
-102.633005 102.252723 400.512175 24.263950 -4.774631 3.404234 -1.291198 6.455275 -0.646513 -0.563921 2.870796 -0.268881 -0.563921 2.870796 -0.268881 -0.421588 2.153347 -0.198968 -0.409950 12.013080 -0.102145 -0.740336 -13.875377 -0.019706 0.402360 0.137148 5.422510 10.597433 -14.878078 47.041265 39.272208 -38.451504 26.884321 -9.820349 -17.534113 10.566836 4.013874 2.800986 -2.852979 -8.044188 -22.643384 -54.090540 -26.428788 -52.592845 -49.543017 18.121557 -17.741321 7.284925 -7.961492 -23.312765 -5.416066 -5.758332 -1.040027 1.114352 6.447370 -8.190418 8.231975 0.000000 0.000000 0.000000 -1.437559 5.173085 -7.742815 4.740453 26.760791 0.216746 7.854997 -25.428997 3.271149 0.053486 -2.247467 -2.942270
-102.183297 101.937528 402.162801 24.558501 -4.807610 3.751019 -1.450854 6.529281 -0.781358 -0.632749 2.904359 -0.326263 -0.632754 2.904372 -0.326270 -0.472915 2.178626 -0.241645 -0.650279 11.789983 -0.120631 -1.193701 -14.288547 0.050027 -0.110496 0.036487 5.257396 10.829834 -15.108540 47.526545 39.497709 -38.383761 26.505472 -9.994006 -17.275024 10.741956 4.153425 2.866752 -2.826797 -8.139502 -22.737625 -54.104956 -25.989545 -52.943183 -50.031350 17.835742 -17.628111 7.328799 -8.521200 -23.958481 -5.285516 -5.119928 0.317082 0.713884 7.001134 -8.682796 8.036309 -0.000000 -0.000000 -0.000000 -1.808125 5.740434 -7.965203 4.536280 27.646938 0.087343 8.237209 -25.938106 2.950314 0.083799 -3.222530 -3.060447
-101.751491 101.616424 403.848108 24.911982 -4.856090 4.107457 -1.639689 6.624243 -0.928087 -0.714247 2.947435 -0.388355 -0.714256 2.947465 -0.388366 -0.533703 2.211070 -0.287768 -0.919383 11.535945 -0.137892 -1.704645 -14.758171 0.136870 -0.635355 -0.007200 5.078554 11.006542 -15.489865 48.075335 39.725056 -38.270247 26.091818 -10.194852 -16.976007 10.964043 4.311150 2.974903 -2.773994 -8.294520 -22.842125 -54.110246 -25.454448 -53.390368 -50.614101 17.472443 -17.486847 7.361854 -9.377040 -24.722995 -5.014069 -4.008752 2.574596 0.151420 7.836203 -9.063743 7.622016 0.000000 0.000000 0.000000 -2.129235 6.242027 -8.157513 3.964764 28.728811 -0.165074 8.846099 -26.329004 2.549422 0.119790 -4.385372 -3.154429
-101.369799 101.309057 405.593862 25.531944 -4.874868 4.391474 -1.911870 6.672652 -1.055558 -0.833032 2.969938 -0.440781 -0.833032 2.969938 -0.440781 -0.622491 2.228060 -0.326461 -1.189777 11.320012 -0.151295 -2.221151 -15.156018 0.233310 -1.035343 -0.012734 4.954591 10.933621 -15.862014 48.560067 39.864559 -38.044320 25.824871 -10.288282 -16.740163 11.185030 4.428579 3.091441 -2.733999 -8.553361 -22.876029 -54.046286 -25.003578 -53.763707 -51.074451 17.058744 -17.376172 7.308764 -10.072997 -25.209361 -4.774902 -2.976218 4.436211 -0.383701 8.581598 -8.804686 7.048643 0.000000 0.000000 0.000000 -2.406817 6.605415 -8.100441 3.585732 30.062475 -0.377788 8.943940 -26.528721 2.097667 0.161871 -5.838062 -3.173693
-101.050236 101.009360 407.427778 26.628018 -4.890881 4.582539 -2.353644 6.650764 -1.162560 -1.027554 2.961576 -0.481972 -1.027555 2.961513 -0.481956 -0.768161 2.221930 -0.356397 -1.456788 11.177273 -0.163969 -2.731726 -15.417081 0.329902 -1.244197 0.010194 4.930230 10.454205 -16.214645 48.928417 39.833530 -37.624085 25.856163 -10.230803 -16.600899 11.384461 4.472011 3.215168 -2.712085 -9.006310 -22.750407 -53.832086 -24.758507 -54.047528 -51.280278 16.585676 -17.353588 7.120164 -10.387400 -25.163902 -4.662560 -2.353326 5.367884 -0.950975 9.362135 -7.602343 6.292394 -0.000000 -0.000000 -0.000000 -2.716059 6.893736 -7.718320 3.718117 31.626442 -0.381875 8.032495 -26.648711 1.649084 0.200686 -7.484365 -3.079496
-100.780786 100.723400 409.322139 27.990859 -4.877821 4.701801 -2.877740 6.582260 -1.250291 -1.259070 2.932966 -0.513819 -1.259082 2.932902 -0.513804 -0.941647 2.200724 -0.379215 -1.725844 11.073316 -0.175019 -3.247135 -15.605161 0.430681 -1.327600 0.073248 4.958583 9.725660 -16.556845 49.234862 39.718809 -37.091909 26.028913 -10.066697 -16.526416 11.583632 4.475256 3.347264 -2.702272 -9.560769 -22.551559 -53.550585 -24.610666 -54.261927 -51.350642 16.061399 -17.364112 6.848672 -10.543744 -24.839359 -4.584448 -1.792231 5.914500 -1.509160 10.000277 -5.734556 5.478984 -0.000000 0.000000 -0.000000 -2.973821 7.032446 -7.083071 4.065095 33.447991 -0.282158 6.565858 -26.586331 1.227239 0.237943 -9.421232 -2.911933
-100.557615 100.489022 411.219564 29.199828 -4.708328 4.734471 -3.277491 6.471867 -1.290475 -1.436238 2.885420 -0.526813 -1.436238 2.885420 -0.526813 -1.074463 2.165318 -0.388243 -1.984959 10.972994 -0.176812 -3.748235 -15.785477 0.545688 -1.345841 0.190938 4.970250 9.030521 -16.760330 49.507946 39.676386 -36.629728 26.066858 -9.794006 -16.522409 11.797512 4.480639 3.457451 -2.726731 -9.989637 -22.464191 -53.384584 -24.406397 -54.292632 -51.432142 15.538959 -17.299332 6.571653 -10.740032 -24.599868 -4.458018 -0.784970 6.381953 -1.742359 9.695335 -3.586456 4.908564 0.000000 0.000000 0.000000 -2.949095 6.742417 -6.206527 4.251625 35.666610 -0.325617 5.226072 -25.948204 0.821223 0.290155 -12.041098 -2.750626
-100.364928 100.315849 413.159644 30.097396 -4.337244 4.672570 -3.452729 6.293131 -1.271888 -1.514833 2.806410 -0.517516 -1.514806 2.806440 -0.517525 -1.133483 2.106141 -0.381114 -2.240936 10.889519 -0.169135 -4.247828 -15.933245 0.677831 -1.322348 0.361519 4.948606 8.396434 -16.691308 49.786561 39.737329 -36.277944 25.878452 -9.363382 -16.599042 12.043955 4.507403 3.495389 -2.841211 -10.269729 -22.497075 -53.345631 -23.979646 -54.058860 -51.639383 14.992647 -17.087977 6.298292 -11.345831 -24.481523 -4.199937 1.628258 6.636312 -1.331377 7.559746 -1.002304 4.663549 -0.000000 -0.000000 0.000000 -2.594625 5.987817 -5.083750 3.912611 38.298765 -0.766267 4.333769 -24.611994 0.508507 0.374100 -15.807392 -2.674230
-100.218518 100.194257 415.102786 30.839217 -3.805024 4.530813 -3.504101 6.072706 -1.207899 -1.539247 2.708062 -0.490146 -1.539222 2.708075 -0.490152 -1.152015 2.032311 -0.360728 -2.487060 10.809787 -0.152320 -4.733027 -16.073061 0.823740 -1.233385 0.586832 4.912629 7.800907 -16.486214 50.030234 39.860898 -35.998381 25.559334 -8.824044 -16.746974 12.302417 4.535849 3.512869 -2.990337 -10.426492 -22.642341 -53.422304 -23.510153 -53.639960 -51.839803 14.449236 -16.804308 6.013394 -11.987123 -24.444647 -3.895637 4.509589 6.757921 -0.626785 4.499448 1.797419 4.623485 -0.000000 0.000000 -0.000000 -1.980591 4.786196 -3.758529 3.336995 41.330493 -1.391417 3.563788 -22.693404 0.210563 0.478203 -20.257058 -2.650474
-100.161936 100.133222 416.872831 31.473892 -3.112293 4.331190 -3.525659 5.895439 -1.104442 -1.550770 2.628512 -0.445337 -1.550770 2.628512 -0.445337 -1.160957 1.972530 -0.327272 -2.690997 10.658694 -0.117948 -5.148021 -16.345147 0.988594 -1.068982 0.887352 4.846004 7.449573 -16.424603 50.149056 40.087226 -35.855617 25.121008 -8.321406 -16.940424 12.530308 4.549519 3.630575 -3.028243 -10.308839 -23.061702 -53.762109 -23.351186 -53.163909 -51.822992 14.040998 -16.556367 5.758374 -11.738676 -24.750071 -3.743361 5.522880 7.423002 -0.218813 2.461276 3.871624 4.746987 -0.000000 -0.000000 0.000000 -1.068676 2.940439 -2.342691 3.189629 44.867084 -1.678297 2.602175 -20.145406 -0.305325 0.566397 -24.394766 -2.619834
-100.242426 100.140552 418.360078 31.969162 -2.211247 4.058174 -3.530057 5.794345 -0.940740 -1.555093 2.582377 -0.373422 -1.555097 2.582394 -0.373424 -1.164548 1.937773 -0.273448 -2.831285 10.385039 -0.072931 -5.451288 -16.845730 1.152727 -0.748115 1.273948 4.723235 7.389875 -16.600505 50.093780 40.470843 -35.859982 24.517751 -7.895168 -17.208373 12.724225 4.557004 3.912717 -2.865364 -9.613122 -23.947486 -54.633177 -23.668725 -52.550931 -51.519453 13.869840 -16.366449 5.553631 -9.230682 -25.634580 -4.216503 2.466640 9.217372 -0.442957 2.569069 4.757801 5.187054 -0.000000 0.000000 -0.000000 0.156911 0.186777 -0.799839 4.348759 49.278339 -1.036663 0.912944 -16.596916 -1.242662 0.565654 -28.364765 -2.272972
-100.412743 100.208437 419.674227 32.352563 -1.149221 3.727699 -3.501215 5.735741 -0.736136 -1.544967 2.554735 -0.283423 -1.544962 2.554751 -0.283426 -1.157341 1.916807 -0.206075 -2.929212 10.039431 -0.009890 -5.686106 -17.480002 1.338240 -0.355276 1.736961 4.566927 7.570877 -16.918849 49.902194 40.955825 -35.997340 23.792403 -7.504704 -17.519138 12.886992 4.556269 4.292111 -2.588739 -8.623368 -25.083334 -55.819123 -24.277569 -51.882671 -51.023553 13.832435 -16.209176 5.384259 -5.773906 -26.848038 -5.004345 -2.515228 11.531725 -1.044822 3.742997 4.954123 5.721890 -0.000000 -0.000000 0.000000 1.616211 -3.239352 0.732656 6.449782 54.156603 0.596492 -1.064369 -12.370195 -2.231232 0.530858 -32.034041 -1.987794
-100.574698 100.322421 420.968224 32.765119 -0.069913 3.410398 -3.490714 5.705457 -0.553282 -1.542636 2.539862 -0.202616 -1.542636 2.539862 -0.202616 -1.155945 1.905422 -0.145524 -3.016278 9.699370 0.102007 -5.924589 -18.101417 1.615627 -0.126594 2.264567 4.435015 8.050224 -17.375686 49.607281 41.424630 -36.295016 23.088489 -7.174954 -17.754922 12.987162 4.512877 4.691407 -2.316252 -8.100570 -26.051855 -56.681676 -24.996043 -51.530069 -50.378209 13.753525 -16.120122 5.241377 -4.553540 -28.010067 -4.934102 -5.182125 13.367784 -1.501421 4.611613 4.990460 5.826567 0.000000 0.000000 -0.000000 3.247424 -6.769786 1.888857 8.052916 58.463965 2.573179 -2.091373 -8.499187 -2.754932 0.629966 -33.949967 -2.661532
